<svg width="23" height="15" viewBox="0 0 23 15" fill="none" xmlns="http://www.w3.org/2000/svg">
<path d="M21.5685 0.770435H13.9336C13.143 0.770435 12.5021 1.41134 12.5021 2.20196C12.5021 2.99259 13.143 3.63349 13.9336 3.63349H18.1125L12.2438 9.50208L8.48435 5.7423C7.92525 5.18316 7.01873 5.18311 6.45959 5.74225L0.419256 11.783C0.150803 12.0514 0 12.4155 0 12.7952C0 14.0705 1.54194 14.7092 2.44375 13.8074L7.47203 8.77933L11.2316 12.5385C11.7906 13.0975 12.697 13.0975 13.256 12.5385L20.1369 5.65785V9.83679C20.1369 10.6274 20.7778 11.2683 21.5684 11.2683C22.3591 11.2683 23 10.6274 23 9.83679V2.20196C23 1.41134 22.3591 0.770435 21.5685 0.770435Z" fill="#3CAEA4"/>
</svg>
