<svg width="9" height="9" viewBox="0 0 9 9" fill="none" xmlns="http://www.w3.org/2000/svg">
<g clip-path="url(#clip0_1030_868)">
<path d="M0.540889 5.13167C0.577714 5.13765 0.614983 5.1404 0.652272 5.13992L7.00159 5.13992L6.86314 5.20432C6.72781 5.26837 6.6047 5.35554 6.49931 5.46189L4.7188 7.2424C4.48431 7.46625 4.44491 7.82636 4.62543 8.09563C4.83554 8.38257 5.23847 8.44487 5.52543 8.23476C5.54861 8.21778 5.57064 8.19926 5.59135 8.17934L8.81108 4.95962C9.0627 4.70828 9.06292 4.30056 8.81158 4.04894C8.81142 4.04878 8.81124 4.04859 8.81108 4.04843L5.59135 0.828708C5.33953 0.57759 4.93181 0.578153 4.68067 0.829976C4.66091 0.849797 4.64246 0.870886 4.62543 0.893102C4.44491 1.16237 4.48431 1.52248 4.71881 1.74633L6.49609 3.53006C6.59057 3.62464 6.6992 3.70394 6.81807 3.7651L7.01125 3.85203L0.687708 3.85203C0.358753 3.83982 0.070145 4.0696 0.00834595 4.39294C-0.0485827 4.74399 0.189839 5.07472 0.540889 5.13167Z" fill="#178277"/>
</g>
<defs>
<clipPath id="clip0_1030_868">
<rect width="9" height="9" fill="white"/>
</clipPath>
</defs>
</svg>
